# xmcd
#
# Track frame offsets: 
#        150
#        14670
#        31154
#        44936
#        57110
#        71350
#        83192
#        94910
#        109344
#        112410
#        127291
#        144321
#        171321
#
# Disc length: 2745 seconds
#
# Revision: 0
# Processed by: cddbd v1.5.2PL0 Copyright (c) Steve Scherf et al.
# Submitted via: ExactAudioCopy v0.95b4
#
DISCID=c60ab70d
DTITLE=Man Alive - Open Surgery
DYEAR=2005
DGENRE=Punk Rock
TTITLE0=Give Me a Sign
TTITLE1=Say What You Want
TTITLE2=Stationary
TTITLE3=Rewind
TTITLE4=Open Surgery
TTITLE5=Catch Phrases, Slogans and Chants
TTITLE6=Victory Song
TTITLE7=On the Air
TTITLE8=Against the Wall
TTITLE9=Fire
TTITLE10=Hold On
TTITLE11=I.R.L.
TTITLE12=Data Track
EXTD=
EXTT0=
EXTT1=
EXTT2=
EXTT3=
EXTT4=
EXTT5=
EXTT6=
EXTT7=
EXTT8=
EXTT9=
EXTT10=
EXTT11=
EXTT12=
PLAYORDER=
